<svg width="50" height="50" xmlns="http://www.w3.org/2000/svg" xmlns:undefined="https://boxy-svg.com">

 <g>
  <title>Layer 1</title>
  <g stroke="null" id="svg_1">
   <ellipse stroke=" rgb(255, 255, 255)" id="svg_2" stroke-width=" 0px" fill=" rgb(255, 255, 255)" ry="24.84583" rx="24.94068" cy="25.01194" cx="24.94068"/>
   <path stroke=" rgb(0, 0, 0)" id="svg_3" stroke-linejoin=" round" d="m12.47034,14.20053c0,-1.24676 0.76169,-2.25749 1.70046,-2.25749l4.08129,0c0.93927,0 1.70046,1.01073 1.70046,2.25749l0,20.31246c0,1.24527 -0.76119,2.2565 -1.70046,2.2565l0,0.01938l-4.08129,0l0,-0.01938c-0.93927,0 -1.70046,-1.01023 -1.70046,-2.2565l0,-20.31246z"/>
   <path stroke=" rgb(0, 0, 0)" id="svg_4" stroke-linejoin=" round"  d="m29.92881,14.20053c0,-1.24627 0.76169,-2.25749 1.70046,-2.25749l4.08129,0c0.93927,0 1.70046,1.01123 1.70046,2.25749l0,20.31246c0,1.24577 -0.76119,2.2565 -1.70046,2.2565l0,0.01938l-4.08129,0l0,-0.01938c-0.93927,0 -1.70046,-1.01023 -1.70046,-2.2565l0,-20.31246z"/>
  </g>
 </g>
</svg>